<?xml version="1.0" encoding="UTF-8"?><svg id="Layer_1" xmlns="http://www.w3.org/2000/svg" width="323" height="288" viewBox="0 0 323 288"><defs><style>.cls-1{fill:#fff;}.cls-2{opacity:.2;}</style></defs><path class="cls-1" d="M204.02,89.26c-10.12-4.63-20.8-7.92-31.77-9.77-1.5,2.68-2.86,5.45-4.07,8.27-11.69-1.76-23.57-1.76-35.26,0-1.21-2.83-2.57-5.59-4.07-8.27-10.98,1.87-21.67,5.17-31.8,9.8-20.11,29.75-25.56,58.76-22.83,87.36,11.78,8.7,24.95,15.32,38.97,19.56,3.15-4.24,5.95-8.74,8.35-13.46-4.56-1.7-8.95-3.8-13.14-6.27,1.1-.8,2.18-1.62,3.22-2.42,24.67,11.6,53.23,11.6,77.91,0,1.05,.86,2.13,1.68,3.22,2.42-4.2,2.48-8.6,4.58-13.17,6.29,2.4,4.71,5.19,9.21,8.35,13.44,14.02-4.23,27.21-10.84,38.99-19.55,3.2-33.16-5.46-61.91-22.89-87.39Zm-47.22,58.07c0,7.33-2.31,15-6.24,15v0c-3.93,0-6.24-7.67-6.24-15s.67-21.67,6.24-21.67h0c5.57,0,6.24,14.33,6.24,21.67Zm1,19.83c0,2.17-1.02,6.95-7.24,6.95s-7.24-4.78-7.24-6.95,1.83-3.33,7.24-3.33v0c5.4,0,7.24,1.17,7.24,3.33Zm-43.28-27.62c0-5.78,4.68-10.46,10.46-10.46s10.46,4.68,10.46,10.46-4.68,10.46-10.46,10.46-10.46-4.68-10.46-10.46Zm12.7,32.52c-4.54,0-8.23-3.68-8.23-8.23s3.68-8.23,8.23-8.23,8.23,3.68,8.23,8.23-3.68,8.23-8.23,8.23Zm46.69,0c-4.54,0-8.23-3.68-8.23-8.23s3.68-8.23,8.23-8.23,8.23,3.68,8.23,8.23-3.68,8.23-8.23,8.23Zm2.24-18.73c-15.34,0-12.02,13.33-12.02,13.33,0,0,5.75,10.13-.17,14.33-7.5-.83,2.53-3.67-13.4-2.83h0c-15.93-.83-5.9,2-13.4,2.83-5.92-4.2-.17-14.33-.17-14.33,0,0,3.33-13.33-12.02-13.33-8.32,0-8.9-2.67-1.48-2.67,17.11,0,11.94,0,11.94-22.41,0-20.25,15.13-36.75,15.13-36.75v31.5c-5.74,0-11.9,22.61-11.9,29.33s5.95,9.5,5.95,9.5c0,0-4.79,3.5-4.62,7.83,.17,4.33,10.56,5,10.57,5,0,0,10.4-.67,10.57-5,.17-4.33-4.62-7.83-4.62-7.83,0,0,5.95-2.78,5.95-9.5s-6.17-29.33-11.9-29.33v-31.5s15.13,16.51,15.13,36.75c0,22.41-5.17,22.41,11.94,22.41,7.42,0,6.83,2.67-1.48,2.67Zm0-3.33c-5.78,0-10.46-4.68-10.46-10.46s4.68-10.46,10.46-10.46,10.46,4.68,10.46,10.46-4.68,10.46-10.46,10.46Z"/><circle class="cls-2" cx="127.01" cy="163.83" r="8.23"/><path class="cls-2" d="M150.36,125.66h0c-5.57,0-6.24,14.33-6.24,21.67s2.31,15,6.24,15v0c3.93,0,6.24-7.67,6.24-15s-.67-21.67-6.24-21.67h0Z"/><path class="cls-2" d="M143.12,167.16c0,2.17,1.02,6.95,7.24,6.95v-10.28c-5.4,0-7.24,1.17-7.24,3.33Z"/><path class="cls-2" d="M150.36,174.11c6.21,0,7.24-4.78,7.24-6.95s-1.83-3.33-7.24-3.33v10.28Z"/><circle class="cls-2" cx="173.7" cy="163.83" r="8.23"/></svg>